Coordinates
version=1
nRows=49
nColumns=12
inDegrees=yes

Units are S.I. units (second, meters, Newtons, ...)
Angles are in degrees

endheader
time	SC_y	SC_z	SC_x	AC_y	AC_z	AC_x	GH_y	GH_z	GH_yy	EL_x	PS_y
       0.0              -55.68          17.62          8.625           51.7         -11.22          5.142         -95.01          44.99         -4.692          48.44          122.7
   0.01045              -55.67          17.62          8.625           51.7         -11.22          5.139         -95.01          44.99         -4.705          48.44          122.6
   0.02091              -55.67          17.63          8.624           51.7         -11.22          5.136         -95.02          44.99         -4.718          48.44          122.6
   0.03136              -55.66          17.63          8.624           51.7         -11.22          5.132         -95.03          44.99         -4.733          48.44          122.6
   0.04182              -55.65          17.63          8.623           51.7         -11.22          5.128         -95.04          44.99         -4.748          48.44          122.6
   0.05227              -55.65          17.63          8.623           51.7         -11.22          5.124         -95.05          44.99         -4.764          48.43          122.6
   0.06272              -55.64          17.63          8.622           51.7         -11.22           5.12         -95.05          44.99         -4.781          48.43          122.6
   0.07318              -55.63          17.63          8.622           51.7         -11.22          5.115         -95.06          44.98           -4.8          48.43          122.5
   0.08363              -55.62          17.64          8.621           51.7         -11.22           5.11         -95.08          44.98         -4.819          48.43          122.5
   0.09408              -55.61          17.64           8.62           51.7         -11.22          5.104         -95.09          44.98          -4.84          48.42          122.5
    0.1045              -55.61          17.64          8.619           51.7         -11.23          5.098          -95.1          44.98         -4.863          48.42          122.5
     0.115              -55.59          17.64          8.619           51.7         -11.23          5.092         -95.11          44.98         -4.888          48.42          122.4
    0.1254              -55.58          17.64          8.618           51.7         -11.23          5.085         -95.13          44.98         -4.914          48.41          122.4
    0.1359              -55.57          17.65          8.617           51.7         -11.23          5.078         -95.14          44.98         -4.943          48.41          122.4
    0.1464              -55.56          17.65          8.616           51.7         -11.23           5.07         -95.16          44.97         -4.973          48.41          122.3
    0.1568              -55.55          17.65          8.615           51.7         -11.23          5.062         -95.18          44.97         -5.007           48.4          122.3
    0.1673              -55.53          17.66          8.614           51.7         -11.23          5.052          -95.2          44.97         -5.043           48.4          122.3
    0.1777              -55.51          17.66          8.612          51.71         -11.23          5.042         -95.22          44.97         -5.083          48.39          122.2
    0.1882               -55.5          17.66          8.611          51.71         -11.23          5.031         -95.24          44.97         -5.126          48.39          122.2
    0.1986              -55.48          17.67          8.609          51.71         -11.23          5.019         -95.27          44.96         -5.173          48.38          122.1
    0.2091              -55.45          17.67          8.608          51.71         -11.23          5.006         -95.29          44.96         -5.225          48.37          122.0
    0.2195              -55.43          17.68          8.606          51.71         -11.23          4.991         -95.33          44.96         -5.283          48.36          122.0
      0.23               -55.4          17.68          8.604          51.71         -11.23          4.975         -95.36          44.95         -5.346          48.36          121.9
    0.2404              -55.37          17.69          8.601          51.71         -11.23          4.957          -95.4          44.95         -5.416          48.35          121.8
    0.2509              -55.34           17.7          8.599          51.71         -11.23          4.937         -95.44          44.94         -5.494          48.34          121.7
    0.2613              -55.31          17.71          8.596          51.72         -11.23          4.915         -95.49          44.94          -5.58          48.32          121.6
    0.2718              -55.26          17.71          8.593          51.72         -11.24           4.89         -95.54          44.93         -5.678          48.31          121.5
    0.2823              -55.22          17.72          8.589          51.72         -11.24          4.862          -95.6          44.93         -5.787           48.3          121.4
    0.2927              -55.17          17.74          8.585          51.72         -11.24           4.83         -95.66          44.92         -5.911          48.28          121.2
    0.3032              -55.11          17.75          8.581          51.73         -11.24          4.794         -95.74          44.91         -6.051          48.26          121.1
    0.3136              -55.04          17.76          8.575          51.73         -11.24          4.753         -95.83           44.9         -6.211          48.24          120.9
    0.3241              -54.96          17.78          8.569          51.74         -11.25          4.706         -95.93          44.89         -6.395          48.21          120.7
    0.3345              -54.88           17.8          8.562          51.74         -11.25          4.652         -96.04          44.88         -6.608          48.19          120.4
     0.345              -54.77          17.82          8.554          51.75         -11.25          4.589         -96.17          44.86         -6.854          48.15          120.1
    0.3554              -54.65          17.85          8.545          51.75         -11.26          4.515         -96.33          44.85         -7.143          48.11          119.8
    0.3659              -54.51          17.88          8.534          51.76         -11.26          4.428         -96.51          44.82         -7.483          48.07          119.4
    0.3763              -54.34          17.92          8.521          51.77         -11.27          4.324         -96.73           44.8         -7.888          48.01          118.9
    0.3868              -54.14          17.96          8.505          51.78         -11.27            4.2         -96.99          44.77         -8.372          47.95          118.4
    0.3972              -53.89          18.02          8.486           51.8         -11.28           4.05         -97.31          44.74         -8.959          47.87          117.7
    0.4077              -53.59          18.08          8.462          51.81         -11.29          3.867          -97.7          44.69         -9.675          47.77          116.8
    0.4182              -53.22          18.16          8.433          51.83          -11.3           3.64         -98.18          44.64         -10.56          47.65          115.8
    0.4286              -52.76          18.27          8.397          51.86         -11.32          3.358         -98.77          44.58         -11.66           47.5          114.5
    0.4391              -52.18          18.39          8.352          51.89         -11.33          3.003         -99.52          44.49         -13.05          47.32          112.9
    0.4495              -51.44          18.56          8.294          51.93         -11.36          2.551         -100.5          44.39         -14.82          47.08          110.8
      0.46               -50.5          18.77           8.22          51.99         -11.39          1.972         -101.7          44.25         -17.08          46.77          108.2
    0.4704              -49.29          19.03          8.125          52.05         -11.43           1.23         -103.3          44.08         -19.98          46.38          104.8
    0.4809              -47.74          19.38          8.004          52.14         -11.48         0.2816         -105.3          43.86         -23.68          45.88          100.5
    0.4913              -45.79          19.81          7.852          52.25         -11.54        -0.9108         -107.8          43.58         -28.34          45.25          95.06
    0.5018              -43.42          20.33          7.667          52.38         -11.61         -2.364         -110.8          43.25         -34.02          44.49          88.43
